<svg id="Layer_1" data-name="Layer 1" xmlns="http://www.w3.org/2000/svg" viewBox="0 0 1200.56 187.85"><defs><style>.cls-1,.cls-2{fill:#fff;}.cls-1{fill-rule:evenodd;}</style></defs><title>valianttms-white</title><path class="cls-1" d="M301.35,256.86,268.58,186.6a35.37,35.37,0,0,0-6.25-9.18h34.41a17,17,0,0,0-.3,3c0,3,1.94,6.7,4.17,11.66l21.45,47.67,21.45-49.16c2.38-5.33,3.43-8.06,3.43-10.55a7.44,7.44,0,0,0-.6-2.6h19.22a36.16,36.16,0,0,0-7.6,11.29l-31.13,68.15Z" transform="translate(-47.72 -122.07)"/><path class="cls-1" d="M373.28,224.09l15.94-30,16.23,30ZM411,234.27,416,243.7c2.83,5.34,4,8.82,4,11.3a6.6,6.6,0,0,1-.29,1.86h35.15c-3.28-2.48-6.11-7.57-10.13-15l-35.15-64.42H378.49l4,5.21-31.72,59c-3.73,6.95-6.56,11.18-10.13,15.27H359a23.76,23.76,0,0,1,2.53-10.67l6.11-11.92Z" transform="translate(-47.72 -122.07)"/><path class="cls-1" d="M484,177.42a27.17,27.17,0,0,0-1.79,10.67v58.59h36c4.17,0,10.28-.24,14.75-1.86l-2.39,12h-78.2a27.17,27.17,0,0,0,1.79-10.67v-58.1a27.17,27.17,0,0,0-1.79-10.67Z" transform="translate(-47.72 -122.07)"/><path class="cls-1" d="M569.89,177.42a27.17,27.17,0,0,0-1.79,10.67v58.1a27.17,27.17,0,0,0,1.79,10.67H538.31a27.17,27.17,0,0,0,1.79-10.67v-58.1a27.17,27.17,0,0,0-1.79-10.67Z" transform="translate(-47.72 -122.07)"/><path class="cls-1" d="M601.68,224.09l15.94-30,16.23,30Zm37.68,10.18,5.07,9.43c2.83,5.34,4,8.82,4,11.3a6.23,6.23,0,0,1-.3,1.86h35.16c-3.28-2.48-6.11-7.57-10.13-15L638,177.42H606.89l4,5.21-31.73,59c-3.72,6.95-6.55,11.18-10.13,15.27h18.33a23.76,23.76,0,0,1,2.53-10.67L596,234.27Z" transform="translate(-47.72 -122.07)"/><path class="cls-1" d="M746.64,256.86l-48.86-64.3h-.3v53.63a27.17,27.17,0,0,0,1.79,10.67H682.88a27.17,27.17,0,0,0,1.79-10.67v-58.1a27.17,27.17,0,0,0-1.79-10.67h35l48,63.06h.29V188.09a27.16,27.16,0,0,0-1.78-10.67h16.38A27.16,27.16,0,0,0,779,188.09v68.77Z" transform="translate(-47.72 -122.07)"/><path class="cls-1" d="M872.07,177.42l2.38,12c-4.47-1.62-10.57-1.87-14.74-1.87h-14.6v58.6a27.34,27.34,0,0,0,1.78,10.67H815.31a27.17,27.17,0,0,0,1.79-10.67v-58.6H802.5c-4.17,0-10.27.25-14.74,1.87l2.38-12Z" transform="translate(-47.72 -122.07)"/><path class="cls-1" d="M56,130.19c-6.39,6.36-9,15.85-8.11,27.28-.07-2.06-.5-32.43,34.89-28.79,15.34,1.58,42.71,15.14,68.29,38.71l5.8-9.55C116.21,124.9,73.93,112.38,56,130.19Z" transform="translate(-47.72 -122.07)"/><path class="cls-1" d="M140.61,309.93l8-13.2a214.37,214.37,0,0,1-30.2-23.28l22.18,36.48Z" transform="translate(-47.72 -122.07)"/><path class="cls-1" d="M203.46,206.57l-9.94,16.34a164.36,164.36,0,0,1,17.09,56.81s8.78-.63,17.55-22.57c-3.42-15.93-11.76-32.95-24.7-50.58Z" transform="translate(-47.72 -122.07)"/><path class="cls-1" d="M196.16,159.76l-13.45,22.13L175.33,194l-32.68,53.74-2,3.35-2.08-3.35-53.52-88L67.17,189.17,96.8,237.89c22.22,21.52,44.86,32.62,64.09,38.69l16.44-27,16.19-26.64,9.94-16.34L214,189.17l-17.88-29.41Z" transform="translate(-47.72 -122.07)"/><path class="cls-1" d="M230.38,266.41S224.42,288,196,284a205.43,205.43,0,0,1-35.14-7.44c-19.23-6.07-41.87-17.17-64.09-38.69A204.21,204.21,0,0,1,73.52,210.8a252.86,252.86,0,0,1-15.34-24l-.94-1.72-6.3-11.47c3.68,12.68,10.48,26.73,19.92,41a244.78,244.78,0,0,0,30.5,37.23q4.68,4.71,9.46,9.05a222.81,222.81,0,0,0,41.27,30.12c29.94,16.66,57.17,20.41,70.65,7a25.48,25.48,0,0,0,5.14-7.53c3-6.56,3.83-14.78,2.5-24.14Z" transform="translate(-47.72 -122.07)"/><path class="cls-1" d="M193.36,155.14l-14.64-24.06-36.05,59.29h0l-2,3.17-2.09-3.17h0l-36.06-59.29L87.85,155.16c1.37,2.25,49,80.64,52.76,86.77,3.66-6,49.82-82,52.75-86.79Z" transform="translate(-47.72 -122.07)"/><path class="cls-1" d="M932.79,263h22.42V191.32c8,2.51,14.28,8,14.32,16.54h22.39c.12-51.35-95-52.17-94.92,0h22.39c0-8.2,5.77-13.61,13.4-16.25V263Z" transform="translate(-47.72 -122.07)"/><path class="cls-1" d="M1017.67,182.76c16.09-18.06,55.29-17.95,71.52,0,6.45,7.12,11.82,16.59,11.82,26.12V263h-22.39V208.88c0-8.24-6.09-16.11-14-16.13V263h-22.43V192.82c-7.79.05-13.73,7.9-13.73,16.06h0V263h-22.38V208.88c0-9.5,5.22-19,11.58-26.12Z" transform="translate(-47.72 -122.07)"/><path class="cls-1" d="M1209.61,169.26H1154c-44.58,0-44.72,57.72,0,57.72h28v-.12c1,0,5,.13,5.85.12,7-.12,7.5,13.2.34,13.2h-67.55V262.7h61.36c44,0,44.12-58.21,0-58.21h-28c-1,0-5-.13-5.84-.12-7,.12-7.49-12.59-.34-12.59h61.83V169.26Z" transform="translate(-47.72 -122.07)"/><path class="cls-2" d="M1233.22,142.08a15,15,0,0,0-9,3,15.5,15.5,0,0,0-3.25,3.32,15.32,15.32,0,0,0-2.11,13.65,14.93,14.93,0,0,0,2.09,4.14,15.27,15.27,0,0,0,3.23,3.29,14.65,14.65,0,0,0,4.13,2.16,15.25,15.25,0,0,0,9.66,0,14.84,14.84,0,0,0,4.17-2.19,15.14,15.14,0,0,0,5.38-7.47,15.29,15.29,0,0,0,.76-4.75,15.54,15.54,0,0,0-.75-4.75,15.18,15.18,0,0,0-2.11-4.15,14.61,14.61,0,0,0-3.25-3.27,14.79,14.79,0,0,0-4.13-2.16,15.31,15.31,0,0,0-4.82-.78Zm-.09,26.74a11.31,11.31,0,0,1-10.58-7.07,11.8,11.8,0,0,1,2.43-12.66,11.49,11.49,0,0,1,8.24-3.44,11.5,11.5,0,0,1,8.21,3.39,11.64,11.64,0,0,1-3.72,18.86,11.42,11.42,0,0,1-4.58.92Zm6.41-14.26a4.5,4.5,0,0,0-1.54-3.66,6.67,6.67,0,0,0-4.38-1.28h-6.15v14.26H1231v-4h2.8l2.14,4H1240l-3-4.68a4.6,4.6,0,0,0,1.91-1.82,5.68,5.68,0,0,0,.67-2.82ZM1231,157.1v-4.77h2.63a2.68,2.68,0,0,1,1.87.61,2.65,2.65,0,0,1,0,3.52,2.56,2.56,0,0,1-1.87.64Z" transform="translate(-47.72 -122.07)"/></svg>