<?xml version="1.0" standalone="no"?>
<!DOCTYPE svg PUBLIC "-//W3C//DTD SVG 20010904//EN"
 "http://www.w3.org/TR/2001/REC-SVG-20010904/DTD/svg10.dtd">
<svg version="1.0" xmlns="http://www.w3.org/2000/svg"
 width="700.000000pt" height="700.000000pt" viewBox="0 0 700.000000 700.000000"
 preserveAspectRatio="xMidYMid meet">
<metadata>
Created by potrace 1.11, written by Peter Selinger 2001-2013
</metadata>
<g transform="translate(0.000000,700.000000) scale(0.100000,-0.100000)"
fill="#000000" stroke="none">
<path d="M3751 6939 c-63 -6 -89 -22 -92 -56 -2 -15 -6 -32 -9 -35 -1 -2 -3
-10 -5 -18 -25 -106 -32 -124 -55 -140 -24 -16 -111 -49 -148 -55 -24 -3 -68
20 -86 47 -9 12 -16 19 -16 15 0 -4 -11 3 -25 15 -13 11 -22 26 -18 31 4 6 1
7 -7 2 -8 -5 -18 -1 -26 9 -17 24 -61 14 -102 -24 -18 -16 -32 -27 -32 -25 0
6 -39 -25 -67 -54 -27 -28 -29 -48 -9 -96 8 -19 13 -35 11 -35 -2 0 5 -21 15
-46 22 -49 26 -109 10 -119 -6 -4 -8 -11 -5 -16 4 -5 2 -9 -2 -9 -5 0 -22 -21
-38 -46 -30 -48 -77 -80 -98 -67 -18 11 -37 12 -37 2 0 -4 -6 -6 -14 -3 -33
13 -116 9 -134 -6 -11 -8 -31 -53 -45 -100 -39 -132 -39 -125 1 -165 20 -19
40 -35 44 -35 7 0 34 -20 62 -46 6 -5 19 -13 29 -17 9 -3 17 -10 17 -15 0 -4
415 -8 923 -7 899 0 923 1 952 20 17 11 35 24 42 30 6 5 34 26 62 45 56 39 79
79 60 105 -4 6 -15 38 -23 73 -22 85 -35 110 -60 119 -31 10 -88 11 -108 1
-10 -5 -18 -5 -18 0 0 4 -9 8 -19 8 -11 0 -17 -4 -14 -9 3 -5 -4 -6 -17 -2
-12 4 -28 8 -35 9 -18 3 -39 26 -83 94 -30 46 -38 67 -34 91 2 17 7 29 11 27
4 -3 7 3 8 12 1 20 5 36 31 117 l20 60 -27 22 c-14 12 -33 29 -42 37 -9 7 -32
24 -50 37 -18 13 -40 30 -47 37 -28 26 -42 18 -170 -87 -40 -34 -77 -46 -97
-31 -5 4 -31 13 -57 20 -27 7 -48 17 -48 22 0 5 -4 7 -9 4 -17 -11 -38 31 -66
133 -21 78 -33 105 -47 109 -10 2 -18 7 -18 11 0 8 -57 8 -139 0z"/>
<path d="M2015 5962 c-4 -4 -19 -7 -33 -7 -63 -2 -81 -21 -82 -90 -1 -36 -23
-65 -70 -87 -25 -12 -38 -14 -47 -6 -7 6 -13 7 -13 4 0 -4 -14 2 -31 15 -48
34 -88 31 -127 -10 -29 -29 -33 -40 -29 -68 3 -18 15 -45 26 -59 22 -28 22
-82 0 -109 -34 -40 -42 -46 -55 -41 -8 3 -14 2 -14 -3 0 -5 -14 -7 -32 -6 -22
2 -38 -4 -55 -21 -13 -13 -20 -24 -15 -24 5 0 6 -20 2 -44 -8 -52 -1 -63 64
-96 26 -14 47 -30 46 -34 -1 -5 3 -12 10 -16 18 -11 18 -72 1 -100 -9 -14 -27
-36 -41 -48 -30 -29 -31 -45 -7 -96 30 -62 41 -70 95 -62 26 4 56 9 67 10 11
2 186 167 388 368 364 363 367 367 374 415 3 26 11 51 17 55 7 5 7 8 -2 8 -7
0 -11 4 -8 9 8 13 -15 37 -64 63 -51 28 -62 26 -117 -30 -19 -18 -38 -30 -43
-27 -6 3 -10 2 -10 -4 0 -7 -8 -7 -25 -1 -14 5 -25 7 -25 4 0 -4 -7 -1 -15 6
-8 7 -15 9 -15 5 0 -13 -36 38 -51 73 -8 17 -17 32 -21 32 -3 0 -13 7 -21 15
-8 8 -18 11 -22 7z"/>
<path d="M2728 5752 c-43 -4 -66 -25 -49 -45 6 -8 13 -31 15 -53 2 -21 6 -46
9 -54 3 -8 9 -33 13 -55 4 -22 9 -44 10 -50 4 -13 15 -64 20 -92 6 -33 12 -60
30 -138 9 -38 17 -79 19 -90 1 -11 3 -20 4 -20 3 0 5 -9 15 -60 8 -44 45 -216
52 -245 4 -14 7 -34 9 -45 1 -11 4 -27 8 -35 3 -8 10 -44 17 -80 7 -36 16 -80
22 -98 5 -17 11 -44 12 -60 2 -15 6 -34 9 -42 3 -8 18 -73 32 -145 15 -71 28
-134 29 -140 5 -23 26 -122 30 -145 3 -14 9 -42 15 -62 5 -20 6 -39 3 -42 -3
-4 0 -6 6 -6 6 0 9 -7 6 -15 -4 -8 -2 -21 4 -28 5 -6 8 -22 7 -34 -1 -13 3
-23 8 -23 6 0 8 -2 5 -5 -3 -3 2 -42 12 -85 10 -44 16 -80 13 -80 -3 0 0 -7 7
-15 7 -8 10 -15 7 -15 -3 0 -1 -17 4 -37 5 -21 12 -47 14 -58 6 -25 37 -177
39 -190 1 -5 4 -14 7 -20 3 -5 5 -22 4 -37 0 -15 3 -24 8 -21 5 3 7 0 5 -8 -3
-8 -2 -24 3 -35 4 -12 11 -41 14 -65 4 -24 8 -47 11 -50 2 -4 6 -24 9 -45 3
-22 9 -46 12 -54 6 -16 13 -51 16 -85 2 -11 5 -25 9 -30 3 -6 9 -31 13 -55 3
-25 13 -52 22 -60 9 -8 13 -10 10 -4 -4 7 -1 17 7 23 8 7 26 35 41 64 47 92
58 112 67 115 4 2 6 8 2 13 -3 5 0 9 6 9 6 0 8 5 5 10 -3 6 -1 10 4 10 6 0 11
4 11 9 0 4 19 41 41 82 23 41 51 92 63 114 11 22 24 42 29 43 4 2 7 10 7 17 0
7 3 15 8 17 9 4 46 80 44 91 -1 4 2 7 7 7 5 0 14 14 21 30 7 17 17 30 22 30 5
0 7 4 3 9 -3 5 0 15 7 23 7 7 20 27 28 43 8 17 21 38 29 48 8 9 10 17 5 17 -5
0 -4 4 1 8 6 4 21 27 34 52 14 25 29 48 35 52 6 4 7 8 3 8 -5 0 1 13 12 29 12
16 21 33 21 38 0 6 9 18 20 28 11 10 17 22 13 27 -3 6 1 14 8 19 8 4 14 12 15
16 2 22 28 62 37 56 6 -4 7 -1 3 6 -5 7 -2 20 6 29 8 9 20 32 28 50 7 17 17
32 22 32 5 0 6 5 3 10 -3 6 -2 10 3 10 5 0 24 30 42 68 19 37 37 69 41 72 3 3
9 15 13 28 4 12 12 19 18 16 6 -4 8 -3 5 3 -3 5 6 29 20 54 14 24 38 67 53 94
31 56 75 135 100 180 10 17 26 46 36 65 11 19 22 37 25 40 3 3 11 20 18 37 7
18 16 31 20 29 4 -3 8 5 8 16 1 12 6 24 11 27 5 3 31 47 57 96 26 50 53 97 60
105 6 8 22 36 34 63 13 26 28 47 34 47 5 0 7 3 4 7 -4 3 -1 13 7 22 8 9 16 21
17 26 5 27 23 54 32 48 6 -3 7 -1 3 5 -3 6 5 27 19 48 14 20 25 43 25 50 0 8
5 14 10 14 6 0 10 4 10 9 0 4 19 41 41 82 23 41 51 92 63 114 63 113 91 161
98 166 5 3 2 12 -7 19 -13 11 -215 14 -1108 14 -601 1 -1109 0 -1129 -2z"/>
<path d="M5193 5752 c-24 -2 -43 -7 -43 -12 0 -4 83 -91 185 -193 101 -101
182 -187 180 -191 -3 -3 -2 -4 1 -1 4 2 22 -9 41 -25 l33 -30 38 18 c20 9 41
23 45 30 4 6 15 12 22 12 8 0 15 3 15 8 0 4 20 18 45 32 25 14 45 28 45 32 0
5 3 7 8 6 11 -4 102 53 102 63 0 5 5 9 10 9 6 0 37 17 68 37 31 21 69 43 85
50 15 7 27 18 27 24 0 7 3 10 6 6 4 -3 13 1 21 9 8 8 19 12 24 9 5 -4 9 -2 9
4 0 5 10 16 23 23 86 48 117 77 85 79 -52 2 -1042 3 -1075 1z"/>
<path d="M2494 5650 c-45 -43 -79 -81 -76 -84 3 -4 1 -6 -4 -6 -6 0 -338 -329
-739 -730 -670 -670 -730 -733 -728 -762 1 -17 5 -33 10 -37 4 -3 19 -23 33
-43 14 -21 28 -38 33 -38 4 0 7 -4 7 -9 0 -12 168 -243 184 -253 6 -4 7 -8 3
-8 -5 0 -1 -7 7 -16 9 -8 13 -21 9 -27 -3 -7 -3 -9 2 -5 4 4 29 -23 56 -60 26
-37 55 -74 63 -83 9 -9 16 -20 16 -26 0 -5 9 -18 20 -28 11 -10 20 -24 20 -32
0 -7 3 -13 8 -13 4 0 18 -17 32 -38 14 -20 27 -39 30 -42 16 -15 110 -151 110
-160 0 -5 4 -10 8 -10 10 0 72 -87 72 -101 0 -6 5 -7 10 -4 6 3 10 0 10 -8 0
-7 8 -22 18 -33 10 -10 33 -41 52 -69 19 -27 37 -51 42 -53 4 -2 8 -10 8 -17
0 -7 4 -15 8 -17 5 -1 28 -32 53 -68 24 -35 49 -69 54 -76 6 -6 19 -23 30 -38
11 -16 26 -34 33 -41 6 -8 12 -18 12 -23 0 -6 3 -12 8 -14 4 -1 20 -23 37 -48
16 -25 32 -47 35 -50 12 -12 90 -120 90 -125 0 -3 8 -14 18 -24 28 -32 42 -50
42 -55 0 -3 7 -14 15 -23 8 -10 37 -49 65 -88 28 -38 57 -77 64 -85 7 -9 15
-24 19 -33 3 -9 11 -17 16 -17 5 0 13 -9 16 -20 3 -11 12 -26 18 -32 19 -20
67 -86 67 -92 0 -2 14 -20 30 -38 16 -18 30 -38 30 -45 0 -7 3 -13 8 -13 4 0
18 -17 32 -38 23 -34 86 -120 110 -149 6 -7 10 -17 10 -23 0 -5 5 -10 10 -10
6 0 10 -7 10 -15 0 -8 5 -15 10 -15 6 0 18 -16 27 -35 9 -19 20 -35 24 -35 4
0 20 -20 36 -45 15 -25 31 -45 36 -45 4 0 7 -4 7 -10 0 -5 24 -42 54 -82 30
-40 52 -77 49 -83 -4 -5 -3 -7 1 -3 9 7 76 -75 76 -92 0 -6 3 -10 8 -10 4 0
18 -18 32 -40 14 -22 28 -40 32 -40 5 0 8 -5 8 -11 0 -6 7 -17 15 -26 8 -8 12
-19 9 -25 -4 -6 -3 -8 2 -5 5 3 21 -11 34 -31 14 -20 34 -47 45 -60 11 -13 19
-25 18 -28 -2 -2 5 -12 15 -23 9 -10 35 -45 57 -76 22 -32 45 -63 50 -69 6 -6
25 -32 43 -59 17 -26 36 -53 42 -60 6 -6 28 -37 50 -67 22 -30 44 -60 50 -67
5 -7 10 -17 10 -23 0 -5 3 -10 8 -10 4 0 18 -17 32 -37 14 -21 30 -45 37 -53
50 -64 83 -112 83 -120 0 -6 6 -10 14 -10 8 0 13 7 11 18 -2 9 -9 41 -16 71
-7 30 -13 64 -14 75 -1 12 -3 21 -5 21 -1 0 -3 9 -5 20 -1 11 -5 31 -9 45 -3
14 -13 63 -22 110 -8 47 -18 92 -21 100 -4 8 -7 23 -8 33 -2 9 -3 18 -5 20 -1
1 -3 11 -5 22 -8 49 -14 82 -20 105 -4 14 -11 50 -16 80 -5 30 -12 62 -16 70
-3 8 -7 26 -8 40 -1 14 -4 25 -5 25 -3 0 -11 41 -13 73 -1 12 -5 22 -9 22 -3
0 -5 14 -4 30 1 17 -2 30 -7 30 -5 0 -7 11 -5 25 3 13 1 26 -4 27 -5 2 -11 19
-13 38 -3 19 -8 53 -13 75 -9 42 -10 47 -17 67 -3 12 -26 130 -41 213 -3 17
-9 44 -14 60 -5 17 -11 44 -14 60 -9 52 -16 89 -23 115 -3 14 -5 29 -4 34 1 4
-2 13 -6 20 -5 6 -8 23 -7 39 0 15 -2 27 -6 27 -4 0 -7 6 -7 13 0 6 -5 35 -11
62 -7 28 -14 64 -16 80 -2 17 -6 37 -9 45 -7 19 -17 65 -24 105 -8 50 -10 59
-16 75 -5 14 -31 141 -44 215 -8 44 -11 60 -13 60 -1 0 -4 11 -5 25 -2 14 -11
57 -20 95 -16 67 -26 126 -28 153 0 6 -4 12 -8 12 -4 0 -7 8 -7 18 1 9 -5 44
-12 77 -7 33 -14 67 -15 75 -2 8 -4 17 -5 20 -1 3 -2 8 -2 11 1 3 -5 30 -13
58 -7 29 -11 59 -8 67 3 8 1 14 -4 14 -5 0 -10 6 -10 13 0 6 -10 62 -23 122
-12 61 -24 117 -25 125 -2 8 -4 15 -5 15 -1 0 -4 14 -6 30 -11 71 -12 80 -14
80 -2 0 -7 20 -25 115 -9 47 -19 92 -22 100 -3 8 -7 22 -8 30 -1 8 -12 62 -25
120 -12 58 -24 114 -25 125 -1 11 -4 20 -5 20 -2 0 -3 14 -4 30 -1 17 -6 36
-10 43 -4 7 -4 17 -1 22 3 6 2 10 -2 10 -5 0 -15 35 -22 78 -7 42 -15 84 -18
92 -7 18 -11 34 -18 75 -6 35 -42 208 -50 245 -4 14 -8 34 -9 45 -2 11 -5 20
-6 20 -1 0 -4 11 -5 25 -3 22 -38 191 -52 245 -3 11 -5 32 -6 48 0 15 -5 27
-9 27 -5 0 -8 8 -7 18 1 9 -1 24 -4 32 -3 8 -8 29 -11 45 -2 17 -9 53 -15 80
-10 45 -14 66 -26 130 -2 11 -7 31 -10 45 -4 14 -8 36 -10 50 -1 14 -5 32 -8
40 -9 25 -19 74 -19 97 0 13 -4 20 -9 17 -5 -3 -6 2 -3 10 15 39 -37 10 -112
-64z"/>
<path d="M5018 5652 c-13 -26 -29 -53 -36 -60 -7 -8 -10 -18 -7 -23 4 -5 3 -9
-2 -9 -4 0 -26 -34 -47 -75 -22 -41 -43 -75 -48 -75 -4 0 -8 -6 -8 -14 0 -17
-70 -150 -82 -154 -4 -2 -8 -12 -8 -22 0 -10 -5 -22 -11 -25 -6 -4 -13 -14
-17 -24 -15 -36 -106 -196 -114 -199 -4 -2 -8 -10 -8 -18 0 -16 -29 -65 -45
-76 -5 -4 -6 -8 -2 -8 5 0 0 -15 -11 -32 -26 -42 -59 -102 -86 -153 -12 -22
-24 -42 -27 -45 -3 -3 -11 -20 -18 -37 -8 -18 -18 -33 -24 -33 -6 0 -7 -3 -4
-7 4 -3 3 -11 -2 -17 -4 -6 -25 -42 -46 -81 -20 -38 -43 -75 -51 -81 -7 -6
-11 -13 -9 -16 3 -3 -19 -48 -49 -101 -30 -52 -52 -98 -48 -101 3 -3 1 -6 -4
-6 -9 0 -9 -52 0 -100 2 -14 7 -56 11 -93 3 -37 8 -76 10 -86 2 -10 4 -40 6
-67 1 -27 4 -53 7 -57 5 -9 14 -102 16 -159 0 -21 5 -38 9 -38 5 0 6 -4 3 -8
-10 -16 14 -77 42 -109 15 -17 38 -46 52 -63 14 -18 30 -37 35 -44 12 -13 96
-116 108 -131 4 -5 17 -22 30 -36 12 -14 33 -40 47 -59 14 -18 30 -38 35 -44
22 -23 55 -75 53 -83 -1 -4 4 -21 11 -38 8 -16 17 -39 21 -50 4 -11 12 -31 18
-45 6 -14 13 -32 14 -40 2 -8 6 -17 10 -20 4 -3 9 -15 11 -25 1 -11 6 -25 10
-31 3 -6 20 -49 37 -94 17 -45 34 -88 37 -94 4 -6 8 -15 9 -21 1 -5 29 -80 63
-166 33 -85 61 -161 61 -167 0 -7 5 -12 11 -12 5 0 7 -5 4 -10 -4 -6 -2 -16 3
-23 15 -20 51 -124 45 -131 -4 -3 -2 -6 4 -6 13 0 35 -58 27 -71 -3 -5 0 -9 5
-9 6 0 11 -5 11 -11 0 -6 7 -26 15 -45 8 -19 22 -50 31 -69 8 -19 13 -39 9
-44 -3 -5 0 -11 5 -13 6 -2 12 -10 14 -18 1 -8 10 -33 20 -55 10 -22 18 -48
19 -57 1 -10 5 -18 9 -18 4 0 8 -4 8 -9 0 -5 5 -22 12 -38 13 -32 19 -52 20
-70 1 -7 5 -13 10 -13 4 0 8 -6 8 -14 0 -20 43 -46 61 -36 8 4 59 18 114 31
55 13 103 24 108 25 4 1 8 2 10 4 1 1 11 3 22 4 11 2 108 24 215 51 107 26
202 49 210 50 8 2 17 4 20 5 3 1 9 2 14 1 4 -1 13 2 20 7 6 5 19 8 29 7 9 -2
17 1 17 6 0 5 6 9 14 9 8 0 17 8 20 18 2 9 4 687 4 1506 l-1 1490 -182 182
c-101 100 -181 185 -177 188 3 3 0 6 -6 6 -15 0 -322 307 -322 322 0 6 -3 9
-6 5 -6 -6 -360 344 -357 353 1 3 -9 7 -22 8 -19 1 -28 -7 -47 -46z"/>
<path d="M1204 4952 c5 -8 -1 -12 -16 -12 -35 0 -45 -11 -65 -65 -17 -45 -22
-50 -56 -56 -21 -3 -40 -2 -43 3 -3 4 -14 8 -25 8 -10 0 -19 4 -19 9 0 6 -12
6 -30 0 -16 -6 -30 -15 -30 -21 0 -5 -4 -7 -8 -4 -4 2 -8 -3 -9 -12 -1 -10 -2
-22 -4 -27 -1 -6 6 -27 15 -48 9 -21 14 -47 11 -56 -7 -24 -41 -54 -63 -56
-26 -2 -62 -15 -63 -23 -6 -33 -5 -59 5 -76 15 -26 34 -47 42 -46 10 2 44 -53
44 -72 0 -9 -11 -29 -25 -44 -14 -15 -25 -30 -26 -33 -5 -37 -4 -51 3 -51 4 0
8 -7 8 -17 0 -9 3 -14 6 -10 4 3 13 0 21 -8 17 -18 74 -20 91 -3 7 7 12 8 12
4 0 -5 72 63 161 150 88 88 166 164 172 171 107 105 204 213 205 228 6 56 1
71 -29 97 -25 21 -36 25 -51 17 -10 -5 -18 -7 -18 -4 0 3 -14 -8 -31 -24 -18
-18 -38 -28 -50 -26 -28 6 -79 44 -79 60 0 8 -14 24 -32 36 -17 13 -28 18 -24
11z"/>
<path d="M4082 3993 c-50 -86 -91 -160 -109 -195 -8 -15 -18 -30 -24 -33 -5
-4 -9 -15 -9 -25 0 -10 -5 -22 -12 -26 -7 -5 -8 -3 -3 6 6 9 4 11 -4 6 -7 -5
-10 -10 -7 -13 5 -5 -35 -83 -81 -155 -12 -21 -23 -42 -23 -48 0 -6 -4 -8 -10
-5 -6 3 -7 -1 -4 -9 4 -10 -1 -18 -10 -22 -9 -3 -15 -11 -14 -18 2 -16 -23
-66 -34 -66 -5 0 -6 -4 -3 -10 3 -5 2 -10 -4 -10 -6 0 -13 -11 -17 -25 -3 -14
-10 -25 -14 -25 -4 0 -11 -11 -14 -24 -3 -14 -12 -31 -19 -38 -6 -7 -19 -26
-27 -43 -8 -16 -23 -42 -33 -57 -10 -16 -15 -28 -10 -28 4 0 3 -4 -3 -8 -6 -4
-28 -38 -49 -77 -21 -38 -46 -82 -56 -96 -10 -14 -16 -29 -12 -33 3 -3 2 -6
-4 -6 -6 0 -16 -15 -24 -32 -7 -18 -15 -35 -19 -38 -3 -3 -11 -16 -18 -30 -7
-14 -18 -34 -25 -45 -27 -44 -41 -71 -44 -85 -7 -30 0 -103 12 -132 4 -9 4
-21 1 -27 -3 -5 -2 -11 3 -13 5 -1 12 -19 15 -39 3 -20 9 -47 14 -60 4 -13 7
-34 6 -46 0 -13 3 -23 9 -23 5 0 7 -11 5 -25 -3 -14 -2 -25 2 -25 4 0 7 -6 7
-12 0 -7 10 -58 22 -113 13 -55 24 -109 25 -120 2 -11 6 -27 9 -35 3 -8 13
-53 22 -100 9 -47 19 -92 22 -100 3 -8 7 -24 9 -35 5 -41 13 -75 17 -82 3 -5
8 -24 11 -43 11 -67 17 -95 23 -115 8 -24 13 -52 15 -82 1 -13 5 -23 9 -23 4
0 6 -8 4 -17 -1 -10 1 -25 5 -33 5 -9 11 -34 14 -56 4 -23 10 -55 15 -72 5
-17 7 -33 3 -36 -3 -3 0 -6 5 -6 6 0 10 -8 8 -17 -1 -10 0 -22 3 -28 3 -5 7
-19 9 -32 6 -45 10 -68 16 -83 3 -8 11 -44 18 -80 6 -36 17 -71 23 -79 9 -12
8 -13 -4 -6 -12 7 -13 6 -4 -6 6 -8 12 -21 12 -29 2 -17 4 -27 32 -160 11 -52
23 -102 27 -110 6 -15 8 -27 16 -86 2 -18 7 -36 11 -42 3 -5 8 -27 11 -48 3
-22 9 -46 12 -54 8 -21 22 -92 26 -132 1 -10 5 -18 9 -18 8 0 12 25 8 45 -1 5
-2 17 -1 25 0 60 0 260 -1 1314 -1 1146 -1 1189 17 1202 10 8 16 14 12 14 -4
0 12 17 35 37 24 21 58 52 76 70 18 18 35 33 37 33 5 0 93 80 131 120 19 19
34 32 34 29 0 -3 25 19 56 48 30 29 59 53 63 53 8 0 31 44 31 59 0 4 -8 16
-17 27 -18 19 -41 47 -117 137 -22 26 -41 55 -43 64 -5 28 -11 82 -17 153 -4
36 -8 85 -11 110 -2 25 -7 74 -10 110 -3 36 -8 85 -11 110 -3 25 -7 55 -9 68
-4 40 -12 35 -53 -35z"/>
<path d="M875 3960 c-1 -16 3 -30 8 -30 5 0 4 -7 -3 -15 -10 -12 -10 -15 0
-15 10 0 10 -3 0 -15 -7 -8 -9 -15 -4 -15 5 0 9 -127 9 -283 0 -155 2 -329 5
-387 3 -65 1 -108 -5 -112 -7 -5 -7 -8 0 -8 6 0 10 -112 10 -315 0 -173 2
-315 5 -315 3 0 7 -167 8 -372 2 -204 8 -383 13 -396 10 -26 256 -272 271
-272 5 0 6 -4 3 -10 -3 -5 -2 -10 2 -10 14 0 203 -187 196 -194 -4 -3 -1 -6 6
-6 7 0 50 -37 96 -82 46 -46 106 -105 134 -132 28 -27 51 -52 51 -57 0 -5 4
-9 10 -9 5 0 57 -46 114 -102 57 -57 149 -147 205 -201 55 -55 101 -104 101
-110 0 -6 3 -8 6 -5 7 8 220 -202 217 -213 -2 -5 1 -8 6 -6 4 1 59 -46 120
-106 119 -114 111 -110 221 -107 30 1 148 2 261 4 113 2 211 6 217 10 6 3 13
2 17 -4 4 -6 11 -8 16 -4 5 3 114 7 243 8 128 2 238 6 244 9 5 4 12 1 14 -5 3
-8 9 -5 16 9 9 17 9 25 -1 35 -19 19 -57 75 -54 79 1 2 0 3 -2 2 -3 -2 -68 84
-119 157 -9 14 -25 34 -34 44 -10 11 -18 26 -18 33 0 7 -3 13 -7 13 -5 0 -23
23 -42 50 -19 28 -39 50 -44 50 -6 0 -8 3 -4 6 3 4 1 12 -6 20 -29 33 -37 44
-37 53 0 6 -6 14 -12 18 -18 11 -78 99 -78 114 0 7 -3 10 -6 6 -4 -3 -22 17
-42 46 -19 29 -39 54 -44 55 -4 2 -8 8 -8 14 0 10 -67 97 -85 110 -5 4 -6 8
-2 8 5 0 -8 19 -27 42 -20 23 -34 43 -32 46 2 2 -3 12 -12 21 -32 33 -62 71
-57 71 3 0 -3 10 -15 22 -11 12 -20 25 -20 28 0 4 -13 21 -30 40 -16 18 -32
42 -36 52 -3 10 -10 18 -15 18 -5 0 -9 7 -9 15 0 8 -3 15 -7 15 -5 0 -19 17
-33 38 -14 20 -28 39 -31 42 -15 13 -77 109 -73 114 2 3 1 4 -3 1 -3 -3 -20
15 -37 39 -17 24 -58 81 -91 127 -33 45 -64 89 -70 97 -5 9 -18 25 -27 36 -10
11 -18 26 -18 33 0 7 -7 13 -15 13 -8 0 -15 6 -15 13 0 7 -8 22 -17 33 -10 10
-31 39 -48 64 -16 25 -36 49 -42 53 -7 4 -13 15 -13 22 0 8 -5 15 -11 15 -5 0
-7 5 -4 10 3 6 2 10 -3 10 -5 0 -35 37 -67 83 -33 45 -63 84 -67 85 -4 2 -8 8
-8 13 0 6 -5 15 -10 22 -39 46 -53 65 -72 97 -12 19 -28 39 -35 43 -7 4 -13
14 -13 21 0 8 -7 16 -15 20 -8 3 -15 12 -15 20 0 8 -4 16 -8 18 -4 2 -23 26
-42 53 -19 28 -37 52 -40 55 -3 3 -17 21 -30 40 -13 19 -30 41 -37 48 -7 7
-13 17 -13 21 0 4 -8 17 -18 29 -10 11 -26 31 -35 44 -9 13 -39 53 -66 90 -27
36 -47 69 -43 72 3 3 0 6 -6 6 -7 0 -24 19 -38 42 -15 24 -33 48 -40 56 -7 7
-21 26 -31 42 -9 17 -21 30 -25 30 -4 0 -8 4 -8 10 0 5 -7 18 -15 27 -8 10
-58 79 -112 153 -54 74 -101 137 -105 138 -5 2 -8 8 -8 13 0 6 -11 22 -25 37
-14 15 -25 32 -25 39 0 6 -9 19 -21 27 -13 9 -18 19 -13 28 4 7 4 10 -1 6 -8
-8 -61 61 -57 75 1 4 -2 7 -8 7 -5 0 -22 19 -37 43 -15 23 -31 44 -35 47 -4 3
-18 22 -32 43 -14 20 -37 53 -50 72 -13 19 -26 31 -30 28 -3 -4 -6 -1 -6 5 0
7 -3 12 -8 12 -4 0 -7 -13 -7 -30z"/>
</g>
</svg>
